<svg xmlns="http://www.w3.org/2000/svg" version="1.1" width="600px" height="600px" viewBox="0 0 200 200" style="overflow:hidden!important;"><g id="svga-group-wrapper"><g id="svga-group-backs-single"><path id="SvgjsPath4434" d="M0 0h200v200H0V0z" fill="#ecf0f1" stroke-width="none" opacity="1" stroke="none"></path></g><g id="svga-group-humanwrap-move" transform="matrix(1,0,0,1,0,0)"><g id="svga-group-humanwrap"><g id="svga-group-hair-back-move" transform="matrix(1,0,0,1,0,0)"><g id="svga-group-hair-back"><path id="SvgjsPath8571" d="m124.1 44.1-6.9-7.6-25.2-1-27.8 10-15.4 23.7-2 18.4 2.4 12.2-3.7 22.1 5.8 10.9-1 11.2 4.1 5.1-4.8 7.5s1.4 5.8 1.4 6.8-5.1 8.5-5.1 8.5l1.4 6.1 10.5 8.9L71 176.7l1.7-6.5 6.5-5.8 1-5.8 41.2-8.9 19.1-20.4 9.2-21.8-1.7-36.6-13.5-24.1-10.4-2.7z" fill="#352924" stroke-width="none" opacity="1" stroke="none"></path><path id="SvgjsPath8572" d="M144.3 112s-5.1 15-5.1 15.7c0 .6-18.2 18.2-18.2 18.2s-22.7 2.8-23.5 2.8-19.3-1.7-19.3-1.7l-.2 10.8-16.9 9.2 8.7-11.2-2.8-7.6-9.3-17.2s-4.2-14-4.2-14.6-2.1-23.3-2.1-23.3l-.9-15.5 11.5-20 82.3 54.4zm-98.9 9.9 5.8 10.9-1 11.2 4.1 5.1 8.9 12.2s-6.7-15.3-6.7-15.8.2-12.5.2-12.5l-11.3-11.1zm5.5 41.5-5.1 8.5 1.4 6.1 3.2 1.9 4.2-10.8-5-12.5 1.3 6.8z" fill="#261b16" stroke-width="none" opacity="1" stroke="none"></path></g></g><g id="svga-group-humanbody-back"><path id="SvgjsPath4501" d="m168.2 200-4.6-14.2-34.9-13.4-10.8-9.7-1.4-50.5h-33l-1.4 50.5-10.8 9.7-34.9 13.4-4.6 14.2-3 20h142.4z" fill="#e5b89c" stroke-width="none" opacity="1" stroke="none"></path><path id="SvgjsPath4502" d="m83.5 112.2-1.4 50.5-10.8 9.7-34.9 13.4-4.6 14.2-3 20H39v-20l1.7-13.3 32.1-12.9 14.1-9.5 2-52.1z" fill="#c6875f" stroke-width="none" opacity="1" stroke="none"></path></g><g id="svga-group-chinshadow-single"><path id="SvgjsPath4808" d="m117.5 150.3-1-38.2h-33l-1.1 42.1c2.9 2 6 3.9 9.3 5.8l5.5 1.1 5.5-1.1c5.6-3.1 10.6-6.5 14.8-9.7z" fill="#b77146" stroke-width="none" opacity="1" stroke="none"></path></g><g id="svga-group-humanbody-front"></g><g id="svga-group-clothes-single"><path id="SvgjsPath8793" d="m173.6 220-2.4-20-3.3-12.7-3.4-1.5-1.6-2.1-16.4-5.8-.9-2.1-4.8-3.6-2.9-9.9-4.9-5-6.7-4.4-8.7-1 .3 10.8-1 9.6-12 10.4-3.2 4-6.6-4-12-10.4-1-9.6.3-10.8-8.7 1-6.7 4.4-4.9 5-2.9 9.9-4.8 3.6-.9 2.1-16.5 5.8-1.5 2.1-3.4 1.5-3.3 12.7-2.4 20z" fill="#0e2470" stroke-width="none" opacity="1" stroke="none"></path><path id="SvgjsPath8794" d="M129.1 168.4c.6-.4.6-6.2.6-6.2l-1.7-7.1s.8 10.4.8 11-13.5 12.3-13.5 12.3l-10 8.3 9.6-5.4s13.7-12.5 14.2-12.9zm13.7 13.3-7.5 3.5-18.1 4.8-7.4 2.8-1.6-1.6.5-2.4-2.3.2s-.3.7-.5 1.3h-.1l-.1-.8-4.2-2.9 3.3 4.1-1.5.6v-.3l-2.4-.4-.7 2.4h.1l-6 5-3.3 9.3 4.7 3.2 3.6-4.9.4-7.2 2.5-4.9-3.8 5-.3 6.5-2.8 3.5-2.6-2.1 2.8-8.5 4.9-4.9 2.1.4-.2 11.1 2.9 11.8 2.3-1.3-4.2-10.9-.4-10.6.1-1.1 1.3-.4.8 2.5-1.6.6 1.7-.4 1.8 5.6 2.1 17.9 3.3-.4-3.9-13.2-.9-5.2-1.8-4.8h.1l.1.4-.1-.4 1.4-.3.8 1.4 1.9 14.1 3.6 1.2 2.1-4.3-3.2-10.7-2.6-2.5 6.6-1.6 17.9-4.4 9.1-4.2 2.5-5.2-.9-2.1-2.3 5.7zm-36 9.5c.6.2 1.3.5 1.3.5l.1-.3 1.3 1.5-1.8.7-1.4-2.2.5-.2zm-.7 3-.9-2.4.2-.1.7 2.5zm.2-.1-.3-2.6.2-.1 1.3 2.3-1.2.4zm5.8 1.8 3.2 10.5-1.8 3.3-2.4-1.1-2-12.8-1.2-1.9 2-.5 2.2 2.5zm18-15.3 10.7-8.3-1.9-5.4s-9.1 11-9.2 11.6c-.2.6-11.9 4.2-11.9 4.2l-9.1 6.2 9.2-4.6 12.2-3.7zm34 7.1-5.8 13.5-1.9 18.5 3.3-18.1 6.2-13.5-1.8-.4zM88 192l-15.9-4.2-10-12.7 1.5-8.2 2.7 5.2 12.5 11.5 14.2 2.2s-11-3.2-11.7-3.2-12-11.2-12-11.2l.2-12 10.5-5.7 1.7-1.7-8 .9-6.7 4.5-5 5-2.9 9.9-4.8 3.6-.9 2.1-16.4 5.7-1.5 2.1-3.4 1.5-3.3 12.7-2.4 20h8.3l1.8-26 2.6-1.2 4.5 6.4s5 20.1 5.2 19.5-4.2-20.1-4.2-20.1l-4.5-6.6 1.4-1.8L57 186l10 4.5 13.9 3 14.9.8L88 192zm-10.7-34.6-1 7.5 6.8 7.4-1-9.6.2-8.9-5 3.6zm44.4 8.7 1.7-9-4.7-4-.5-1.2-.6-.1.3 10.8-1 9.6 4.8-6.1z" fill="#021861" stroke-width="none" opacity="1" stroke="none"></path><path id="SvgjsPath8795" d="m146.9 179 15.7 5.4.6 2.7-4.4 10.8 1.6-11.9-14.9-5.4 1.4-1.6zm18 13.2 2.4-3.8 2.4 11.9 1.4 18.5-3.6-18.5-2.6-8.1zM122.4 154l2.8 4-2.4 10-4.8 4.9-13.3 11.9 15-11.4 7.9-7.8-.6-8.6-4.6-3zm-47 4.5-.6 7.9 7.8 9 12.3 8.6 6.5 3.5-8.4-2.7-13-7.6-8.4-10.2 1.9-7.3 1.9-1.2z" fill="#1d337f" stroke-width="none" opacity="1" stroke="none"></path></g><g id="svga-group-head" transform="matrix(1,0,0,1,0,0)"><g id="svga-group-ears-left-move" transform="matrix(1,0,0,1,0,0)"><g id="svga-group-ears-left"><path id="SvgjsPath4451" d="M64.1 91.8s-6-.7-10.6-3.7c0 0-3.5 9.4-4 14.4 0 0 6.7 13 10 18.5 0 0 5.2-.7 6.3-1.4l1.4-8.4-3.1-19.4z" fill="#e5b89c" stroke-width="none" opacity="1" stroke="none"></path><path id="SvgjsPath4452" d="M54.3 90c-.2-.4-.8-1.9-.8-1.9 5.2.4 10.7 1.4 10.7 1.4l3 21.7-1.4 8.4c-1.1.7-6.3 1.4-6.3 1.4-.6-1-1.3-2.4-2.1-3.7l2.6 1 3-1.6s.7-11.2.5-11.5c-.1-.3-9-14.8-9.2-15.2z" fill="#d69f7c" stroke-width="none" opacity="1" stroke="none"></path><path id="SvgjsPath4453" d="m51.3 100.9 2.8-5.5 5.2 6.8 2.2 9.5-1.4 1.9-4.3-7.6 1-4.7-2.6-4z" fill="#c6875f" stroke-width="none" opacity="1" stroke="none"></path></g></g><g id="svga-group-ears-right-move" transform="matrix(1,0,0,1,0,0)"><g id="svga-group-ears-right"><path id="SvgjsPath4454" d="M135.9 91.8s6-.7 10.6-3.7c0 0 3.5 9.4 4 14.4 0 0-6.7 13-10 18.5 0 0-5.2-.7-6.3-1.4l-1.4-8.4 3.1-19.4z" fill="#e5b89c" stroke-width="none" opacity="1" stroke="none"></path><path id="SvgjsPath4455" d="M145.7 90c.2-.4.8-1.9.8-1.9-5.2.4-10.7 1.4-10.7 1.4l-3 21.73 1.4 8.37c1.1.7 6.3 1.4 6.3 1.4.6-1 1.3-2.4 2.1-3.7l-2.6 1-3-1.6s-.7-11.2-.5-11.5c.1-.3 9-14.8 9.2-15.2z" fill="#d69f7c" stroke-width="none" opacity="1" stroke="none"></path><path id="SvgjsPath4456" d="m148.7 100.9-2.8-5.5-5.2 6.8-2.2 9.5 1.4 1.9 4.3-7.6-1-4.7 2.6-4z" fill="#c6875f" stroke-width="none" opacity="1" stroke="none"></path></g></g><g id="svga-group-faceshape-wrap"><g id="svga-group-faceshape-single"><path id="SvgjsPath4798" d="M136.8 61c-6.7-11.2-19-18.9-19-18.9-7-1.5-17.8-2.2-17.8-2.2s-10.8.8-17.8 2.2c0 0-12.4 7.6-19 18.9 0 0-5 14-5.2 23.9 0 0 1.4 33.9 4.4 42.6 0 0 12.2 14.4 32.1 25.5l5.5 1.1 5.5-1.1c19.9-11.1 32.1-25.5 32.1-25.5 3-8.7 4.4-42.6 4.4-42.6-.3-9.8-5.2-23.9-5.2-23.9z" fill="#e5b89c" stroke-width="none" opacity="1" stroke="none"></path><path id="SvgjsPath4799" d="M83.9 44.1c8.8-3 33.9-2 33.9-2-7-1.5-17.8-2.2-17.8-2.2s-10.8.8-17.8 2.2c0 0-12.4 7.6-19 18.9 0 0-5 14-5.2 23.9 0 0 1.4 33.9 4.4 42.6 0 0 8.6 10.2 23.2 20-8.6-8.6-16.4-24.8-16.4-24.8-2.1-9.7-7.4-39-7.4-39 0-3.5 3.9-20.6 3.9-20.6 2-3.9 18.2-19 18.2-19z" fill="#c6875f" stroke-width="none" opacity="1" stroke="none"></path></g></g><g id="svga-group-mouth-single-move" transform="matrix(1,0,0,1,0,0)"><g id="svga-group-mouth-single"><path id="SvgjsPath5412" d="m87.06 129.72 8.35 5.42 10.61.06 7.84-5.34-12.92-.14-8.99-.19z" fill="#d48b94" stroke-width="none" opacity="1" transform="translate(0 3)" stroke="none"></path><path id="SvgjsPath5413" d="m85.79 129.82 10.42.48 4.25 2.03 3.67-2.22 11.01-.15-11.22-2.66-3.72 1.74-4.26-1.59z" fill="#c56d78" stroke-width="none" opacity="1" transform="translate(0 3)" stroke="none"></path><path id="SvgjsPath5414" d="m111.64 130.62-5.86 4.08-4.6.03 4.43-.38z" fill="#f3d0d4" stroke-width="none" opacity="1" transform="translate(0 3)" stroke="none"></path><path id="SvgjsPath5415" d="M100.51 129.4s3.35-1.68 3.47-1.68 5.44 1.41 5.44 1.41l-5.4-1.03-3.51 1.3z" fill="#dc9ba3" stroke-width="none" opacity="1" transform="translate(0 3)" stroke="none"></path></g></g><g id="svga-group-eyes-left-move" transform="matrix(1,0,0,1,0,0)"><g id="svga-group-eyes-left"><g id="svga-group-eyesback-left"><path id="SvgjsPath6074" d="m91.9 100.1-5.1-4.5-8.8.1-6.8 3.8s5.7 4.2 7 4.8l8.6-.4 5.1-3.8z" fill="#ffffff" stroke-width="none" opacity="1"></path></g><g id="svga-group-eyesiriswrapper-left" transform="matrix(1,0,0,1,0,0)"><g id="svga-group-eyesiriscontrol-left" transform="matrix(1,0,0,1,0,0)"><g id="svga-group-eyesiris-left"><path id="SvgjsPath6296" d="m77.71 102.12-.73-3.56 2-3.04 3.56-.73 3.04 2 .73 3.56-2 3.04-3.56.73z" fill="#3e2321" stroke-width="none" opacity="1" stroke="none"></path><path id="SvgjsPath6297" d="m80.63 101.89-1.42-1.42v-2.03l1.42-1.42h2.03l1.43 1.42v2.03l-1.43 1.42z" fill="#000000" stroke-width="none" opacity="1"></path><path id="SvgjsPath6298" d="m85.79 96.65-3.2-2.11-3.75.77-2.11 3.2.77 3.75 3.2 2.11 3.75-.77 2.11-3.2-.77-3.75zm-4.21 5.4.2 1.61-.52.11v-1.72h.32zm.16 0h.35l.42 1.46-.57.12-.2-1.58zm.51 0h.38l.73 1.29-.7.14-.41-1.43zm.34-.31H80.7l-1.34-1.34v-1.89l1.34-1.34h1.89l1.34 1.34v1.89l-1.34 1.34zm-3.61.93 1-1.2.23.23c-.24.47-.54 1.08-.68 1.34l-.55-.37zm.89-1.31-1.02 1.23-.48-.32 1.2-1.22.3.31zm.47.46.21.21-.25 1.51-.63-.42c.1-.18.29-.55.67-1.3zm-2.61-.8-.16-.77 1.48-.21v.37l-1.32.61zm1.32-1.6-1.67-.1-.11-.52 1.77.2v.42zm0 .16v.31l-1.51.21-.13-.61 1.64.09zm.1-1.3-1.47-.34.64-.97 1.28.87-.45.44zm-.24-2.21c.16.16.52.48 1.3 1.15l-.51.51-1.3-.89.51-.77zm2.46.79c-.05-.34-.18-1.12-.24-1.53l.67-.14v1.67h-.43zm-.16 0h-.33l-.77-1.33.86-.18c.08.54.19 1.2.24 1.51zm3.03 1.87 1.42-.33.13.63-1.55.1v-.4zm0-.16v-.19l-.24-.25 1.39-1.08.25 1.2-1.4.32zm-.36-.55-.33-.33 1.16-1.18.61.4-1.44 1.11zm-.44-.44-.45-.45.66-1.32.92.61-1.13 1.16zm-.56-.57-.16-.16h-.24l.21-1.69.84.55-.65 1.3zm.64 4.25 1.13 1.19-.36.54-1.1-1.4.33-.33zm.11-.12.22-.22 1.34.7-.45.68-1.11-1.16zm.33-.33.28-.28v-.1c.31.08.94.26 1.46.42l-.43.65-1.31-.69zm.28-1.52 1.59-.1.12.57-1.7-.06v-.41zm-1.7-4.22-.22 1.78h-.38v-1.7l.55-.11.05.03zm-2.59.5.75 1.29h-.13l-.25.25c-.49-.42-1.13-.98-1.33-1.17l.13-.2.83-.17zm-2.37 2.51 1.47.34v.43l-1.81-.21-.01-.04.35-.52zm.18 3.1 1.32-.61.37.37-1.22 1.24-.31-.2-.16-.8zm2.69 2.46.26-1.58h.4v1.75l-.31.06-.35-.23zm3.07-.33-.74-1.32.3-.3 1.12 1.43-.03.05-.65.14zm2.27-2.6c-.53-.15-1.22-.36-1.55-.44v-.41l1.74.06.08.38-.27.41z" fill="#1f0c0a" stroke-width="none" opacity="1" stroke="none"></path><path id="SvgjsPath6299" d="m81.2 97.05-.87-.25-.65.62.21.88.87.26.65-.63z" fill="#ffffff" stroke-width="none" opacity="1"></path><path id="SvgjsPath6300" d="m83.15 100.84-.53-.3-.53.3v.62l.53.3.53-.3z" fill="#ffffff" stroke-width="none" opacity="1"></path></g></g></g><g id="svga-group-eyesfront-left"><path id="SvgjsPath6082" d="M67.97 94.46v11.11l7.69 7.86h10.87l7.69-7.86V94.46l-7.69-7.86H75.66l-7.69 7.86zm3.25 4.89 6.84-3.78 8.83-.05 5.05 4.54-5.05 3.78-8.62.36c-1.34-.66-7.05-4.85-7.05-4.85z" fill="#e5b89c" stroke-width="none" opacity="1" stroke="none"></path><path id="SvgjsPath6083" d="m91.94 100.07-5.06-4.54-8.82.05-6.84 3.77-1.53.02-1.72-.76 3.63-.89 6.18-3.06 9.49.07 4.08 3.94z" fill="#c6875f" stroke-width="none" opacity="1" stroke="none"></path><path id="SvgjsPath6084" d="m72.17 100.51-1.61-1.16-1.86-1.34 2.64.92 1.57-.84a24 24 0 0 0-.61-.22l-1.15-1.38 1.95.99.63.16 1.62-.87-.64-.36-.73-1.15 1.38.99.6.19 1.37-.74-.55-.33-.46-.77.84.65.6.21.09-.05 9.11-.19 4.98 4.83-5.24-4.2h-8.66l-6.38 3.66 6.6 4.67 8.52-.52 3.96-2.69-3.77 3.08-8.76.39-.54-.35-.81.76.21-.42.39-.47-1-.65-.45.32-.71.54.35-.52.6-.49-.99-.64-.85.48-.89.64.66-.79.75-.53-1.12-.73-1.01.47-.85.5.58-.71.89-.5-.86-.56-.04-.03-.75.2-1.33.6.89-.71.84-.34z" fill="#000000" stroke-width="none" opacity="1" stroke="none"></path></g></g></g><g id="svga-group-eyes-right-move" transform="matrix(1,0,0,1,0,0)"><g id="svga-group-eyes-right"><g id="svga-group-eyesback-right"><path id="SvgjsPath6075" d="m108.1 100.1 5.1-4.5 8.8.1 6.8 3.8s-5.7 4.2-7 4.8l-8.6-.4-5.1-3.8z" fill="#ffffff" stroke-width="none" opacity="1"></path></g><g id="svga-group-eyesiriswrapper-right" transform="matrix(1,0,0,1,0,0)"><g id="svga-group-eyesiriscontrol-right" transform="matrix(1,0,0,1,0,0)"><g id="svga-group-eyesiris-right"><path id="SvgjsPath6301" d="m114.42 102.12-.73-3.56 2-3.04 3.56-.73 3.04 2 .73 3.56-2 3.04-3.56.73z" fill="#3e2321" stroke-width="none" opacity="1" stroke="none"></path><path id="SvgjsPath6302" d="m117.34 101.89-1.43-1.42v-2.03l1.43-1.42h2.03l1.42 1.42v2.03l-1.42 1.42z" fill="#000000" stroke-width="none" opacity="1"></path><path id="SvgjsPath6303" d="m122.5 96.65-3.2-2.11-3.75.77-2.11 3.2.77 3.75 3.2 2.11 3.75-.77 2.11-3.2-.77-3.75zm-4.21 5.4.2 1.61-.52.11v-1.72h.32zm.16 0h.35l.42 1.46-.57.12-.2-1.58zm.51 0h.38l.73 1.29-.7.14-.41-1.43zm.34-.31h-1.89l-1.34-1.34v-1.89l1.34-1.34h1.89l1.34 1.34v1.89l-1.34 1.34zm-3.61.93 1-1.2.23.23c-.24.47-.54 1.08-.68 1.34l-.55-.37zm.89-1.31-1.02 1.23-.48-.32 1.2-1.22.3.31zm.47.46.21.21-.25 1.51-.63-.42c.1-.18.29-.55.67-1.3zm-2.61-.8-.16-.77 1.48-.21v.37l-1.32.61zm1.32-1.6-1.67-.1-.11-.52 1.77.2v.42zm0 .16v.31l-1.51.21-.13-.61 1.64.09zm.1-1.3-1.47-.34.64-.97 1.28.87-.45.44zm-.25-2.21c.16.16.52.48 1.3 1.15l-.51.51-1.3-.89.51-.77zm2.46.79c-.05-.34-.18-1.12-.24-1.53l.67-.14v1.67h-.43zm-.15 0h-.33l-.77-1.33.86-.18c.08.54.19 1.2.24 1.51zm3.03 1.87 1.42-.33.13.63-1.55.1v-.4zm0-.16v-.19l-.25-.25 1.39-1.08.25 1.2-1.39.32zm-.36-.55-.33-.33 1.16-1.18.61.4-1.44 1.11zm-.44-.44-.45-.45.66-1.32.92.61-1.13 1.16zm-.56-.57-.16-.16h-.24l.21-1.69.84.55-.65 1.3zm.64 4.25 1.13 1.19-.36.54-1.1-1.4.33-.33zm.11-.12.22-.22 1.34.7-.45.68-1.11-1.16zm.33-.33.28-.28v-.1c.31.08.94.26 1.46.42l-.43.65-1.31-.69zm.28-1.52 1.59-.1.12.57-1.7-.06v-.41zm-1.7-4.22-.22 1.78h-.38v-1.7l.55-.11.05.03zm-2.59.5.75 1.29h-.13l-.25.25c-.49-.42-1.13-.98-1.33-1.17l.13-.2.83-.17zm-2.37 2.51 1.47.34v.43l-1.81-.21-.01-.04.35-.52zm.18 3.1 1.32-.61.37.37-1.22 1.24-.31-.2-.16-.8zm2.68 2.46.26-1.58h.4v1.75l-.31.06-.35-.23zm3.08-.33-.74-1.32.3-.3 1.12 1.43-.03.05-.65.14zm2.27-2.6c-.53-.15-1.22-.36-1.55-.44v-.41l1.74.06.08.38-.27.41z" fill="#1f0c0a" stroke-width="none" opacity="1" stroke="none"></path><path id="SvgjsPath6304" d="m117.91 97.05-.87-.25-.65.62.21.88.87.26.65-.63z" fill="#ffffff" stroke-width="none" opacity="1"></path><path id="SvgjsPath6305" d="m119.86 100.84-.53-.3-.54.3v.62l.54.3.53-.3z" fill="#ffffff" stroke-width="none" opacity="1"></path></g></g></g><g id="svga-group-eyesfront-right"><path id="SvgjsPath6085" d="M124.34 86.6h-10.87l-7.69 7.86v11.11l7.69 7.86h10.87l7.69-7.86V94.46l-7.69-7.86zm-2.6 17.6-8.62-.36-5.05-3.78 5.05-4.54 8.83.05 6.84 3.78c-.01 0-5.72 4.19-7.05 4.85z" fill="#e5b89c" stroke-width="none" opacity="1" stroke="none"></path><path id="SvgjsPath6088" d="m108.06 100.07 5.06-4.54 8.82.05 6.84 3.77 1.53.02 1.72-.76-3.63-.89-6.18-3.06-9.49.07-4.08 3.94z" fill="#c6875f" stroke-width="none" opacity="1" stroke="none"></path><path id="SvgjsPath6089" d="m127.83 100.51 1.61-1.16 1.86-1.34-2.64.92-1.57-.84a24 24 0 0 1 .61-.22l1.15-1.38-1.95.99-.63.16-1.62-.87.64-.36.73-1.15-1.38.99-.6.19-1.37-.74.55-.33.46-.77-.84.65-.6.21-.09-.05-9.11-.19-4.98 4.83 5.24-4.2h8.66l6.38 3.66-6.6 4.67-8.52-.52-3.96-2.69 3.77 3.08 8.76.39.54-.35.81.76-.21-.42-.39-.47 1-.65.45.32.71.54-.35-.52-.6-.49.99-.64.86.46.89.64-.66-.79-.75-.53 1.12-.73 1.01.47.85.5-.58-.71-.89-.5.86-.56.04-.03.75.2 1.33.6-.89-.71-.85-.32z" fill="#000000" stroke-width="none" opacity="1" stroke="none"></path></g></g></g><g id="svga-group-facehighlight-single"></g><g id="svga-group-eyebrows-left-move" transform="matrix(1,0,0,1,0,0)"><g id="svga-group-eyebrows-left-rotate" transform="matrix(1,1.7453292519943295e-9,-1.7453292519943295e-9,1,1.5158184396568686e-7,-1.3953906830010965e-7)"><g id="svga-group-eyebrows-left"><path id="SvgjsPath6623" d="m92.2 87.2-1.7 3.5-14.6-4.1-8.2 2 5.9-5 3-.6z" fill="#2a232b" stroke-width="none" opacity="1"></path><path id="SvgjsPath6624" d="m85.7 85.5 1.4.4.5 2.6-1.9-3zM76.6 83l3 3.6-4.3-3.4 1.3-.2zm6.4 1.7 1 3.1-2.6-3.5 1.6.4zm-12 1.1h1.9l-2.6.6.7-.6zm13.9-.6.2 1.1-1.2-1.3 1 .2zm-11.3-1.6 2.6 1.4-3.2-.8.6-.6zm15.7 2.8.5 3.1-2.3-3.5 1.8.4z" fill="#3a353a" stroke-width="none" opacity="1"></path></g></g></g><g id="svga-group-eyebrows-right-move" transform="matrix(1,0,0,1,0,0)"><g id="svga-group-eyebrows-right-rotate" transform="matrix(1,1.7453292519943295e-9,-1.7453292519943295e-9,1,1.5158184396568686e-7,-2.0952678880803433e-7)"><g id="svga-group-eyebrows-right"><path id="SvgjsPath6625" d="m107.8 87.2 1.7 3.5 14.6-4.1 8.2 2-5.9-5-3-.6z" fill="#2a232b" stroke-width="none" opacity="1"></path><path id="SvgjsPath6626" d="m114.3 85.5-1.4.4-.5 2.6 1.9-3zm9.1-2.5-3 3.6 4.3-3.4-1.3-.2zm-6.4 1.7-1 3.1 2.6-3.5-1.6.4zm12 1.1h-1.9l2.6.6-.7-.6zm-13.9-.6-.2 1.1 1.1-1.4-.9.3zm11.3-1.6-2.6 1.4 3.2-.8-.6-.6zm-15.7 2.8-.5 3.1 2.3-3.5-1.8.4z" fill="#3a353a" stroke-width="none" opacity="1"></path></g></g></g><g id="svga-group-nose-single-move" transform="matrix(1,0,0,1,0,0)"><g id="svga-group-nose-single"><path id="SvgjsPath5142" d="m93.25 113.14-3.28 4.66 3.08 3.94 4.12-2.2-4.12 1.3-2.25-3.3z" fill="#c6875f" stroke-width="none" opacity="1" transform="translate(0 2)" stroke="none"></path><path id="SvgjsPath5143" d="m106.75 113.14 3.28 4.66-3.08 3.94-4.12-2.2 4.12 1.3 2.25-3.3z" fill="#c6875f" stroke-width="none" opacity="1" transform="translate(0 2)" stroke="none"></path><path id="SvgjsPath5144" d="m104.97 117.51.95-2.11-1.74 2.4-4.18 2-4.18-2-1.74-2.4.95 2.11-2.3 1.13.84 1.23 2.67-1.15 3.76 2.05 3.76-2.05 2.67 1.15.84-1.23z" fill="#c6875f" stroke-width="none" opacity="1" transform="translate(0 2)" stroke="none"></path><path id="SvgjsPath5145" d="m96.3 110.5 1.55-.44 5.65.18-1.5-.8-4.6-.4z" fill="#c6875f" stroke-width="none" opacity="1" transform="translate(0 2)" stroke="none"></path><path id="SvgjsPath5146" d="m97.45 102.28-.8 6.94.75-.93.49-3.62z" fill="#c6875f" stroke-width="none" opacity="1" transform="translate(0 2)" stroke="none"></path><path id="SvgjsPath5147" d="m95.73 112.93 2.2-1.63 4.29-.05 1.94 1.95-1.37 3.75-3.04.53-2.74-.57z" fill="#edc5ad" stroke-width="none" opacity="1" transform="translate(0 2)" stroke="none"></path></g></g><g id="svga-group-hair-front"><path id="SvgjsPath8564" d="m55.3 171.2-4.7-14.3 4.7-8.5-2.9-5.3s0-7.9.4-7.9 17.6 9.5 17.6 9.5l4.2 11.5.7 6.2-16 12.9-4-4.1z" fill="#352924" stroke-width="none" opacity="1" stroke="none"></path><path id="SvgjsPath8565" d="m68.1 179.4 9.6 10.7-2.3 13.5-.8-5.9-4 13.9 3.6 6.8-5.7-3.4-5.7-12.9s1.7 10.2 1.9 10.8c.2.6-10.1-5.5-10.1-5.5l-7.8-12.9 1.5-12.2 1.9-2.9c-.4-1.1-1.2-3.4-1.4-3.8l2.2-1.2 3.6-2.9-1.7-5.7 1-1.9 8.2 5.7 12.6-13.4 1.8 8.7-4.3 6.1-4.1 8.4zM143.7 71c0-.8-7.2-16.2-7.2-16.2l-12-9.5-6.7-6.2-18.9-2-18.9 4S60.8 55.5 59.8 56.3s-7.7 22.2-7.7 22.2l5.2 20.7 5.5 7-6.5 9.5 1 10.2 6.5 4.7-2.7 4.5 3.5 5-.2-4.2 3.7-3.2-.1-.5-2-3.2-6.1-4.1-.2-8.8 7.5-6.3-.2-4.8-6.6-6.6 3.1-.6-.5-7.6 12-13.9 37.6-9 8.7-9.7 7.4 14.7L140 85.2l-1.5 18.7-4.5 8.5 5.7-6 6-17.7s-2-16.9-2-17.7z" fill="#3d312c" stroke-width="none" opacity="1" stroke="none"></path><path id="SvgjsPath8566" d="m125.2 51.2 4.4 10.2 13.7 16.8-10.9-17.7-7.2-9.3zm-6 7c-.3.7-8.8 8.4-8.8 8.4l-34.9 7.6-10 10.5 7-11.4 35.8-8.6 10.9-6.5zM63.6 73.5 56 86.8l3.3 12.3 6.7 6.5-.3 4.4-6.8 5.6.9 9.6 5.3 4.1-7.6-3.2.1-10.4 7.2-7.2-.2-3.2-6.1-6.3-4-13.9 9.1-11.6z" fill="#443a35" stroke-width="none" opacity="1" stroke="none"></path><path id="SvgjsPath8567" d="m124.2 48.3-2 5.9-13.8 9.1-37 8.8-10.8 16.8 2.9 9.1 6 7-.5 5.7-7 6.5 1 7.7 4.5 4.2.5 3.7-2.2-3.6-6.1-4.1-.2-8.8L67 110l-.2-4.8-6.6-6.6-3.4-11.3L69.7 68l37.7-6.8 13.6-7.5 3.2-5.4zm-3.2 1.8-20.4 7.7-31.3 5.9-13.2 12.7 12.2-15 31.5-5.9 21.2-5.4zm-.7-3.2-29 3.4L69 56.9l22.7-9.8 28.6-.2zm2.9 10 7.5 15.4 10.4 11.8.9 11.1 1.8-13.2-9.3-11.8-11.3-13.3zM53.6 180.6c.3.1 11.2 11.3 11.4 11.7s4 15 4 15l1 6.6 4.3 4.4-5.7-3.4-5.7-12.9-5.7-6.3-3.6-15.1zm-1.8 14.2-1.9-14.3h-.3l-1.2 1.8-1.5 12.2 7.8 12.9s9.2 5.4 10.1 5.5h.1l-7.3-6.4-5.8-11.7zm19.8-24.4-11.5 5.2s.3 7.4 1.3 7.4 9.8 5.1 10.4 6 2.8 8.7 2.8 8.7l-.7-8.6s-9.4-7.9-9.4-8.7.8-4.7.8-4.7l6.3-5.3z" fill="#352924" stroke-width="none" opacity="1" stroke="none"></path><path id="SvgjsPath8568" d="m48.3 179.1.6 2.2 3.9-1.7 11.2-.7 5.2 1.5-.1-2.8-4.7-.9s-12.1.4-12.1.5c-.2.2-4 1.9-4 1.9z" fill="#000000" stroke-width="none" opacity="1"></path><path id="SvgjsPath8569" d="m45.4 121.9 11.2 11s-.2 12.1-.2 12.5 6.7 15.8 6.7 15.8L54.2 149l-4.1-5.1 1-11.2-5.7-10.8zm18.4 19.4 5.3 11.1-5.9 13.2 11.4-9.5-8.4-14.1-2.4-.7z" fill="#261b16" stroke-width="none" opacity="1" stroke="none"></path><path id="SvgjsPath8570" d="m54.9 152.2-3 6.2 9.2 8.6-5.5-9 .4-3.5-1.1-2.3zm9.4 6.5 2.4-6.6-8.1-15.3-.6 8.2 4.9 6.9 1.4 6.8z" fill="#443a35" stroke-width="none" opacity="1" stroke="none"></path></g><g id="svga-group-glasses-single-move" transform="matrix(1,0,0,1,0,0)"><g id="svga-group-glasses-single"></g></g></g></g></g><rect id="svga-credit-rect" width="200" height="15" x="0" y="185" fill="#ecf0f1" opacity="0.5" style="display: none;"></rect><text id="svga-credit-text" font-family="Avenir Next, Roboto, Helvetica, Arial, sans-serif" font-size="10px" text-anchor="start" font-weight="400" size="10px" anchor="start" weight="400" fill="#333333" x="33.40313720703125" y="182.60824728012085" style="display: none;"><tspan id="SvgjsTspan4433" dy="13" x="33.40313720703125">Created on AvatarMaker.com</tspan></text></g><defs id="SvgjsDefs4385"></defs></svg>